<svg t="1712640032580" class="icon" viewBox="0 0 1024 1024" version="1.1" xmlns="http://www.w3.org/2000/svg"
  p-id="11094" width="160" height="160">
  <path
    d="M831.744 530.176l160 91.392a64 64 0 0 1 32.256 55.552v181.76a64 64 0 0 1-32.256 55.552l-160 91.392a64 64 0 0 1-63.488 0l-160-91.392A64 64 0 0 1 576 858.88v-181.76a64 64 0 0 1 32.256-55.552l160-91.392a64 64 0 0 1 63.488 0z"
    fill="#1E90FF" p-id="11095" data-spm-anchor-id="a313x.search_index.0.i0.432b3a81fuom6L" class=""></path>
  <path
    d="M543.744 18.176l160 91.392a64 64 0 0 1 32.256 55.552v181.76a64 64 0 0 1-32.256 55.552l-160 91.392a64 64 0 0 1-63.488 0l-160-91.392A64 64 0 0 1 288 346.88V165.12a64 64 0 0 1 32.256-55.552l160-91.392a64 64 0 0 1 63.488 0z"
    fill="#CFE7FF" p-id="11096" data-spm-anchor-id="a313x.search_index.0.i3.432b3a81fuom6L" class="selected"></path>
  <path
    d="M255.744 530.176l160 91.392A64 64 0 0 1 448 677.12v181.76a64 64 0 0 1-32.256 55.552l-160 91.392a64 64 0 0 1-63.488 0l-160-91.392A64 64 0 0 1 0 858.88v-181.76a64 64 0 0 1 32.256-55.552l160-91.392a64 64 0 0 1 63.488 0z"
    fill="#5FAFFF" p-id="11097" data-spm-anchor-id="a313x.search_index.0.i2.432b3a81fuom6L" class=""></path>
</svg>
